PathFileType	4	(X/Y/Z)	 1.9Hzhigh3min.trc
DataRate	CameraRate	NumFrames	NumMarkers	Units	OrigDataRate	OrigDataStartFrame	OrigNumFrames
200	200	11	35	m	200	251	1000
Frame#	Time	C7			LSH			RSH			MAN			RASI			LASI			HIPR			HIPL			RPSI			LPSI			COX			RTHI1			RTHI2			RTHI3			RTHI4			RSHA1			RSHA2			RSHA3			RSHA4			RHEEL			RMET5			RMET1			RTOE			LTHI1			LTHI2			LTHI3			LTHI4			LSHA1			LSHA2			LSHA3			LSHA4			LHEEL			LMET5			LMET1			LTOE			
		X1	Y1	Z1	X2	Y2	Z2	X3	Y3	Z3	X4	Y4	Z4	X5	Y5	Z5	X6	Y6	Z6	X7	Y7	Z7	X8	Y8	Z8	X9	Y9	Z9	X10	Y10	Z10	X11	Y11	Z11	X12	Y12	Z12	X13	Y13	Z13	X14	Y14	Z14	X15	Y15	Z15	X16	Y16	Z16	X17	Y17	Z17	X18	Y18	Z18	X19	Y19	Z19	X20	Y20	Z20	X21	Y21	Z21	X22	Y22	Z22	X23	Y23	Z23	X24	Y24	Z24	X25	Y25	Z25	X26	Y26	Z26	X27	Y27	Z27	X28	Y28	Z28	X29	Y29	Z29	X30	Y30	Z30	X31	Y31	Z31	X32	Y32	Z32	X33	Y33	Z33	X34	Y34	Z34	X35	Y35	Z35	
251	1.2550	-0.366802	1.414242	-0.527264	-0.292185	1.383656	-0.700750	-0.309496	1.390217	-0.356361	-0.247163	1.372388	-0.526521	-0.210347	0.992409	-0.445311	-0.199007	0.998357	-0.620226	-0.281967	1.035763	-0.399334	-0.252198	1.048660	-0.657530	-0.355699	1.008785	-0.472125	-0.345074	1.019084	-0.586186	-0.356604	1.020456	-0.530028	-0.282644	0.808562	-0.360674	-0.276830	0.746519	-0.359359	-0.205809	0.759703	-0.369259	-0.218757	0.818161	-0.371253	-0.325142	0.371486	-0.349478	-0.341917	0.332091	-0.355927	-0.283818	0.315189	-0.358486	-0.271033	0.353487	-0.357020	-0.417811	0.146733	-0.421220	-0.303742	0.035307	-0.360993	-0.268499	0.040498	-0.430103	-0.249783	0.028194	-0.424001	-0.301327	0.774694	-0.700486	-0.296722	0.715519	-0.698990	-0.224808	0.721920	-0.704707	-0.237122	0.781860	-0.707399	-0.366313	0.350100	-0.700356	-0.379580	0.312202	-0.695033	-0.319162	0.297027	-0.702966	-0.313662	0.340250	-0.707677	-0.431111	0.150940	-0.645086	-0.318148	0.035824	-0.701342	-0.277898	0.043858	-0.641603	-0.261755	0.029357	-0.649302	
252	1.2600	-0.367094	1.420872	-0.527297	-0.292930	1.390855	-0.700570	-0.309613	1.397189	-0.356720	-0.247554	1.379698	-0.526770	-0.209458	0.999345	-0.445504	-0.198409	1.005142	-0.619890	-0.280618	1.043428	-0.399431	-0.251839	1.055662	-0.657111	-0.354268	1.016492	-0.471734	-0.344022	1.026554	-0.585569	-0.355460	1.027974	-0.529668	-0.282992	0.815997	-0.360603	-0.277911	0.753897	-0.359217	-0.206669	0.766258	-0.368554	-0.218919	0.824819	-0.370716	-0.326438	0.376744	-0.349255	-0.342365	0.336967	-0.355426	-0.283937	0.321312	-0.357168	-0.271857	0.359890	-0.356137	-0.413463	0.151604	-0.419776	-0.302336	0.036760	-0.360759	-0.266755	0.042076	-0.429174	-0.248670	0.028727	-0.423233	-0.301480	0.782109	-0.700334	-0.297424	0.722876	-0.698939	-0.225466	0.728632	-0.704766	-0.237226	0.788696	-0.707354	-0.365758	0.355191	-0.701528	-0.378382	0.317053	-0.696512	-0.317677	0.302988	-0.704331	-0.312927	0.346337	-0.708773	-0.426918	0.156507	-0.647390	-0.316025	0.038218	-0.701630	-0.276084	0.045772	-0.642481	-0.260581	0.030268	-0.649874	
253	1.2650	-0.367303	1.427274	-0.527351	-0.293587	1.397750	-0.700436	-0.309668	1.403897	-0.357053	-0.247818	1.386711	-0.527023	-0.208579	1.005925	-0.445650	-0.197842	1.011590	-0.619556	-0.279298	1.050716	-0.399452	-0.251337	1.062337	-0.656696	-0.352894	1.023983	-0.471237	-0.343051	1.033787	-0.584917	-0.354383	1.035311	-0.529199	-0.283343	0.823082	-0.360552	-0.279050	0.760968	-0.359042	-0.207549	0.772488	-0.367909	-0.219150	0.831182	-0.370168	-0.327589	0.381843	-0.348959	-0.342623	0.341670	-0.354909	-0.283866	0.327242	-0.355978	-0.272522	0.366076	-0.355382	-0.409111	0.156460	-0.418278	-0.300754	0.038494	-0.360480	-0.264774	0.043928	-0.428169	-0.247339	0.029426	-0.422393	-0.301629	0.789232	-0.700170	-0.298110	0.729938	-0.698874	-0.226112	0.735090	-0.704831	-0.237335	0.795272	-0.707323	-0.365006	0.360191	-0.702712	-0.377033	0.321823	-0.697946	-0.316070	0.308796	-0.705579	-0.312011	0.352239	-0.709794	-0.422830	0.162009	-0.649655	-0.313672	0.041061	-0.701974	-0.274140	0.048018	-0.643370	-0.259254	0.031439	-0.650427	
254	1.2700	-0.367408	1.433419	-0.527407	-0.294155	1.404329	-0.700347	-0.309669	1.410321	-0.357370	-0.247963	1.393409	-0.527271	-0.207719	1.012141	-0.445753	-0.197314	1.017677	-0.619224	-0.277987	1.057595	-0.399388	-0.250690	1.068696	-0.656304	-0.351584	1.031229	-0.470641	-0.342146	1.040731	-0.584268	-0.353378	1.042431	-0.528641	-0.283720	0.829794	-0.360485	-0.280225	0.767691	-0.358853	-0.208436	0.778392	-0.367337	-0.219426	0.837229	-0.369620	-0.328531	0.386720	-0.348673	-0.342696	0.346202	-0.354376	-0.283618	0.332967	-0.354947	-0.273037	0.372028	-0.354746	-0.404830	0.161301	-0.416780	-0.298999	0.040500	-0.360183	-0.262599	0.046047	-0.427083	-0.245824	0.030307	-0.421486	-0.301799	0.796029	-0.699991	-0.298775	0.736677	-0.698801	-0.226741	0.741267	-0.704911	-0.237480	0.801557	-0.707304	-0.364089	0.365111	-0.703905	-0.375566	0.326510	-0.699313	-0.314376	0.314428	-0.706707	-0.310938	0.357944	-0.710736	-0.418915	0.167399	-0.651822	-0.311147	0.044315	-0.702343	-0.272112	0.050595	-0.644231	-0.257811	0.032924	-0.650934	
255	1.2750	-0.367408	1.439296	-0.527464	-0.294638	1.410591	-0.700301	-0.309626	1.416459	-0.357684	-0.247992	1.399787	-0.527520	-0.206897	1.017979	-0.445818	-0.196837	1.023397	-0.618896	-0.276668	1.064056	-0.399236	-0.249937	1.074733	-0.655942	-0.350352	1.038205	-0.469970	-0.341207	1.047346	-0.583744	-0.352428	1.049285	-0.527996	-0.284124	0.836110	-0.360381	-0.281430	0.774043	-0.358603	-0.209310	0.783956	-0.366845	-0.219743	0.842947	-0.369082	-0.329256	0.391386	-0.348391	-0.342593	0.350585	-0.353808	-0.283201	0.338482	-0.354051	-0.273370	0.377692	-0.354174	-0.400703	0.166120	-0.415313	-0.297081	0.042756	-0.359905	-0.260295	0.048418	-0.425930	-0.244158	0.031395	-0.420546	-0.301992	0.802457	-0.699787	-0.299403	0.743057	-0.698729	-0.227347	0.747158	-0.705020	-0.237670	0.807540	-0.707291	-0.363033	0.369942	-0.705095	-0.374008	0.331123	-0.700594	-0.312624	0.319879	-0.707719	-0.309732	0.363443	-0.711607	-0.415241	0.172648	-0.653844	-0.308494	0.047928	-0.702718	-0.270052	0.053514	-0.645002	-0.256269	0.034787	-0.651341	
256	1.2800	-0.367307	1.444911	-0.527515	-0.295034	1.416535	-0.700290	-0.309537	1.422310	-0.357989	-0.247918	1.405839	-0.527764	-0.206133	1.023441	-0.445864	-0.196426	1.028757	-0.618580	-0.275329	1.070109	-0.399004	-0.249137	1.080448	-0.655605	-0.349215	1.044892	-0.469239	-0.340377	1.053691	-0.583198	-0.351542	1.055854	-0.527282	-0.284536	0.842030	-0.360239	-0.282561	0.779987	-0.358364	-0.210153	0.789186	-0.366447	-0.220097	0.848333	-0.368570	-0.329765	0.395856	-0.348095	-0.342352	0.354868	-0.353137	-0.282683	0.343788	-0.353284	-0.273581	0.383121	-0.353688	-0.396803	0.170859	-0.413927	-0.295007	0.045249	-0.359679	-0.257921	0.051024	-0.424768	-0.242381	0.032740	-0.419614	-0.302221	0.808481	-0.699572	-0.299982	0.749046	-0.698672	-0.227919	0.752761	-0.705171	-0.237910	0.813214	-0.707282	-0.361845	0.374642	-0.706200	-0.372396	0.335655	-0.701783	-0.310849	0.325148	-0.708623	-0.308423	0.368739	-0.712411	-0.411869	0.177704	-0.655691	-0.305765	0.051841	-0.703091	-0.267990	0.056775	-0.645607	-0.254633	0.037100	-0.651586	
257	1.2850	-0.367109	1.450268	-0.527553	-0.295349	1.422163	-0.700307	-0.309405	1.427878	-0.358277	-0.247749	1.411562	-0.528002	-0.205442	1.028535	-0.445896	-0.196092	1.033773	-0.618288	-0.273967	1.075764	-0.398715	-0.248350	1.085843	-0.655291	-0.348188	1.051275	-0.468468	-0.339659	1.059757	-0.582637	-0.350735	1.062117	-0.526536	-0.284940	0.847548	-0.360060	-0.283544	0.785512	-0.358177	-0.210956	0.794115	-0.366127	-0.220467	0.853390	-0.368115	-0.330085	0.400192	-0.347741	-0.341922	0.358993	-0.352535	-0.282065	0.348902	-0.352661	-0.273637	0.388316	-0.353321	-0.393155	0.175466	-0.412667	-0.292788	0.047972	-0.359529	-0.255492	0.053850	-0.423696	-0.240519	0.034376	-0.418743	-0.302480	0.814085	-0.699347	-0.300492	0.754627	-0.698637	-0.228434	0.758075	-0.705369	-0.238195	0.818572	-0.707282	-0.360581	0.379249	-0.707262	-0.370768	0.340111	-0.702879	-0.309083	0.330218	-0.709424	-0.307047	0.373832	-0.713144	-0.408843	0.182530	-0.657331	-0.303004	0.055973	-0.703448	-0.265936	0.060387	-0.645989	-0.252890	0.039942	-0.651628	
258	1.2900	-0.366811	1.455371	-0.527574	-0.295592	1.427480	-0.700338	-0.309252	1.433171	-0.358535	-0.247494	1.416960	-0.528231	-0.204839	1.033281	-0.445925	-0.195842	1.038473	-0.618025	-0.272602	1.081053	-0.398393	-0.247632	1.090925	-0.654997	-0.347277	1.057340	-0.467682	-0.339069	1.065537	-0.582074	-0.350030	1.068075	-0.525786	-0.285320	0.852681	-0.359844	-0.284382	0.790640	-0.357995	-0.211692	0.798774	-0.365890	-0.220840	0.858127	-0.367741	-0.330171	0.404362	-0.347411	-0.341357	0.363007	-0.351939	-0.281371	0.353807	-0.352173	-0.273543	0.393286	-0.353073	-0.389835	0.179901	-0.411545	-0.290424	0.050912	-0.359471	-0.253039	0.056912	-0.422793	-0.238575	0.036371	-0.418006	-0.302757	0.819270	-0.699126	-0.300906	0.759799	-0.698628	-0.228871	0.763100	-0.705609	-0.238509	0.823615	-0.707308	-0.359283	0.383759	-0.708274	-0.369165	0.344494	-0.703882	-0.307370	0.335085	-0.710127	-0.305645	0.378724	-0.713807	-0.406186	0.187100	-0.658759	-0.300236	0.060259	-0.703786	-0.263881	0.064341	-0.646131	-0.251013	0.043332	-0.651475	
259	1.2950	-0.366469	1.460270	-0.527595	-0.295767	1.432493	-0.700375	-0.309067	1.438192	-0.358733	-0.247160	1.422052	-0.528450	-0.204337	1.037697	-0.445956	-0.195676	1.042888	-0.617803	-0.271277	1.086012	-0.398058	-0.247026	1.095702	-0.654719	-0.346492	1.063070	-0.466910	-0.338614	1.071026	-0.581508	-0.349435	1.073703	-0.525054	-0.285661	0.857452	-0.359588	-0.285074	0.795399	-0.357782	-0.212351	0.803168	-0.365725	-0.221214	0.862572	-0.367451	-0.330071	0.408414	-0.347037	-0.340694	0.366914	-0.351358	-0.280624	0.358509	-0.351778	-0.273309	0.398025	-0.352934	-0.386876	0.184075	-0.410557	-0.287924	0.054072	-0.359503	-0.250582	0.060221	-0.422144	-0.236529	0.038791	-0.417489	-0.303034	0.824035	-0.698925	-0.301208	0.764565	-0.698646	-0.229211	0.767849	-0.705877	-0.238824	0.828367	-0.707356	-0.357977	0.388150	-0.709169	-0.367625	0.348799	-0.704773	-0.305743	0.339767	-0.710736	-0.304257	0.383416	-0.714387	-0.403900	0.191408	-0.659983	-0.297475	0.064640	-0.704110	-0.261819	0.068589	-0.646073	-0.248973	0.047228	-0.651164	
260	1.3000	-0.366092	1.464971	-0.527607	-0.295876	1.437209	-0.700408	-0.308879	1.442949	-0.358818	-0.246786	1.426855	-0.528627	-0.203943	1.041815	-0.445994	-0.195589	1.047049	-0.617630	-0.270048	1.090671	-0.397737	-0.246567	1.100194	-0.654460	-0.345840	1.068450	-0.466164	-0.338339	1.076216	-0.580910	-0.348985	1.079029	-0.524368	-0.285963	0.861899	-0.359285	-0.285602	0.799824	-0.357550	-0.212918	0.807337	-0.365626	-0.221568	0.866762	-0.367256	-0.329822	0.412345	-0.346633	-0.339975	0.370711	-0.350801	-0.279890	0.363002	-0.351488	-0.272993	0.402581	-0.352941	-0.384292	0.187976	-0.409756	-0.285307	0.057443	-0.359613	-0.248111	0.063782	-0.421815	-0.234372	0.041684	-0.417254	-0.303289	0.828403	-0.698762	-0.301390	0.768939	-0.698688	-0.229435	0.772327	-0.706152	-0.239114	0.832839	-0.707424	-0.356697	0.392415	-0.709931	-0.366175	0.353001	-0.705540	-0.304226	0.344247	-0.711243	-0.302915	0.387900	-0.714875	-0.401955	0.195438	-0.661010	-0.294778	0.069039	-0.704404	-0.259709	0.073074	-0.645910	-0.246769	0.051549	-0.650777	
261	1.3050	-0.365689	1.469465	-0.527604	-0.295926	1.441637	-0.700432	-0.308728	1.447441	-0.358772	-0.246382	1.431389	-0.528760	-0.203667	1.045663	-0.446037	-0.195577	1.050982	-0.617512	-0.268965	1.095049	-0.397451	-0.246271	1.104413	-0.654224	-0.345319	1.073467	-0.465472	-0.338162	1.081067	-0.580346	-0.348683	1.084043	-0.523749	-0.286214	0.866050	-0.358946	-0.286001	0.803960	-0.357246	-0.213387	0.811312	-0.365570	-0.221883	0.870732	-0.367154	-0.329461	0.416141	-0.346207	-0.339227	0.374380	-0.350278	-0.279175	0.367270	-0.351280	-0.272584	0.406895	-0.353039	-0.382083	0.191582	-0.409120	-0.282595	0.060986	-0.359798	-0.245628	0.067581	-0.421831	-0.232092	0.045033	-0.417352	-0.303497	0.832413	-0.698642	-0.301442	0.772949	-0.698745	-0.229526	0.776552	-0.706407	-0.239354	0.837038	-0.707507	-0.355475	0.396547	-0.710572	-0.364835	0.357089	-0.706168	-0.302838	0.348514	-0.711648	-0.301642	0.392170	-0.715268	-0.400306	0.199193	-0.661844	-0.292144	0.073407	-0.704678	-0.257537	0.077706	-0.645738	-0.244408	0.056174	-0.650412	
